<svg width="21" height="21" viewBox="0 0 21 21" fill="none" xmlns="http://www.w3.org/2000/svg">
<path d="M12.9564 19.7062L2.94093 7.64463C2.69363 7.39847 3.06458 7.02924 3.31187 7.15232L20.2516 16.3831C20.4989 16.5062 20.8698 16.1369 20.6225 15.8908L8.01048 0.875398C7.76318 0.629244 7.39224 0.875399 7.51589 1.12155L13.451 19.46C13.5746 19.7062 13.2037 19.9523 12.9564 19.7062Z" stroke="#002A50" stroke-width="0.2006" stroke-miterlimit="10"/>
<path d="M1.95166 11.2134C2.07531 11.3365 2.07531 11.5826 1.95166 11.7057L1.33342 12.198C1.20977 12.3211 0.962477 12.3211 0.838829 12.198C0.715182 12.0749 0.715182 11.8288 0.838829 11.7057L1.45707 11.2134C1.58072 11.0903 1.82801 11.0903 1.95166 11.2134Z" fill="#002A50"/>
<path d="M8.75244 19.3384C8.87609 19.4615 8.87609 19.7076 8.75244 19.8307L8.1342 20.323C8.01055 20.4461 7.76326 20.4461 7.63961 20.323C7.51596 20.1999 7.51596 19.9538 7.63961 19.8307L8.25785 19.3384C8.3815 19.2153 8.62879 19.2153 8.75244 19.3384Z" fill="#002A50"/>
<path d="M12.7094 19.4599L1.95205 11.7061C1.70476 11.583 1.58111 11.8291 1.70476 11.9522L8.01078 19.583C8.13443 19.7061 8.38173 19.583 8.25808 19.3368L3.06488 7.64453" stroke="#002A50" stroke-width="0.2159" stroke-miterlimit="10"/>
</svg>
